<?xml version="1.0" encoding="utf-8"?>
<!-- Generator: Adobe Illustrator 23.0.3, SVG Export Plug-In . SVG Version: 6.00 Build 0)  -->
<svg version="1.1" id="Layer_1" xmlns="http://www.w3.org/2000/svg" xmlns:xlink="http://www.w3.org/1999/xlink" x="0px" y="0px"
	 viewBox="0 0 33 34" style="enable-background:new 0 0 33 34;" xml:space="preserve">
<style type="text/css">
	.st0{fill:#C79E7C;stroke:#231F20;stroke-width:0.15;stroke-miterlimit:10;}
	.st1{fill:#23847F;}
	.st2{fill:#C79E7C;}
	.st3{fill:#45A9A7;}
	.st4{fill:none;stroke:#231F20;stroke-width:0.15;stroke-miterlimit:10;}
	.st5{fill:#F5F088;}
	.st6{fill:#3E1B11;}
	.st7{fill:url(#SVGID_1_);}
	.st8{fill:#39312B;}
	.st9{fill:#5D5753;}
	.st10{fill:#4E4743;}
	.st11{fill:none;stroke:#3C2415;stroke-width:0.15;stroke-miterlimit:10;}
	.st12{fill:#5C2819;}
	.st13{fill:#552012;}
	.st14{fill:#7D3824;}
	.st15{fill:#B4E2EB;}
	.st16{fill:none;stroke:#552012;stroke-width:0.15;stroke-miterlimit:10;}
	.st17{fill:#83534A;}
	.st18{fill:#9B1C21;stroke:#231F20;stroke-width:0.15;stroke-miterlimit:10;}
	.st19{fill:#016C44;}
	.st20{fill:url(#SVGID_2_);stroke:#231F20;stroke-width:0.15;stroke-miterlimit:10;}
</style>
<image style="display:none;overflow:visible;" width="33" height="34" xlink:href="header.png" >
</image>
<g>
	<g id="Слой_1">
		<path class="st0" d="M28.3,15.1L6,14.9L5.8,30.9c0.1,2.3-2.1,2.3-1.4,2.7c0,0,6,0,12.5,0c0.2,0,11.2,0.2,11.2,0.1l0.5-18.4
			C28.6,15.2,28.5,15.1,28.3,15.1z"/>
		<path class="st1" d="M32.1,18.7c0.2,0.2,0.2,0.8-0.4,0.9c-0.2,0-0.4,0-0.6-0.1l0-0.1c-0.1,0-0.2,0-0.4,0
			C27,19.8,6.9,19.7,2.8,19.3c-0.1,0-0.2,0-0.3,0c0,0-0.1,0-0.1,0c-0.2,0-0.3-0.1-0.3-0.1l0,0c-0.2,0-0.3-0.1-0.5-0.2
			c0,0.3,0.3,0.7,0.9,0.9l0,0C2,20.3,27,20.6,31.2,20.2c0.1,0,0.3,0,0.4,0C33,20,32.6,18.7,32.1,18.7z"/>
		<path class="st2" d="M9.2,4.8C9,3.5,9.1,2.2,9,0.8c-0.1-0.1-0.2,0-0.3,0c0-0.2,0-0.3,0-0.5c0.6,0,3.2-0.8,3,0.4
			c-0.1,0-0.2,0-0.3,0c-0.1,1.2,0,2.4,0.1,3.6c-0.8,0-1.9-0.2-2.7,0.1"/>
		<path class="st2" d="M6,14.9C6,14.7,5.9,14.9,6,14.9z"/>
		<path class="st3" d="M2.1,17.9c0.1,0,0.2,0.1,0.3,0.1C2.3,17.9,2.2,17.8,2.1,17.9z"/>
		<path class="st3" d="M31.8,18.4c0.1-0.1,0.2-0.1,0.3-0.1C32,18.2,31.9,18.2,31.8,18.4z"/>
		<path class="st3" d="M32.1,18.3c0.2,0.2,0.2,0.8-0.4,0.9c-0.2,0-0.4,0-0.6-0.1C29,16.6,25.7,6.7,26.8,2.6c0.1-0.3-18.7-0.3-18.7,0
			c0,4.6-1.9,12.7-4.9,16.2c-0.2,0.1-0.5,0.1-0.7,0.1c-0.6-0.2-0.6-0.8-0.4-1c-0.5,0-0.9,1.2,0.5,1.5l0,0
			c-0.5,0.5,24.4,0.7,28.6,0.4c0.1,0,0.3,0,0.4,0C33,19.6,32.6,18.3,32.1,18.3z"/>
		<path class="st4" d="M9,2.6c-0.1,3-0.1,5.7-0.9,8.6"/>
		<path class="st4" d="M10.9,2.4c0,2.3,0.2,4.5,0.1,6.8c0,1.1-0.1,2.2-0.3,3.2c-0.3,1.1-0.4,2.3-0.5,3.5c-0.2,1.2-0.7,2.4-1,3.6"/>
		<path class="st4" d="M7.9,11.8c-0.1,1.4-0.5,2.8-1.1,4c-0.5,1.1-1.1,2.8-2,3.6"/>
		<path class="st4" d="M12.5,2.7c0.2,1.1-0.2,1.9-0.2,2.9s0.2,2.1,0.2,3.2c0,2.4,0.3,4.7,0.5,7c0.1,1.2,0.5,2.5,0.7,3.7"/>
		<path class="st4" d="M14.3,2.5c0.6,0.9,0.6,3.3,0.7,4.4c0.2,1.3,0.1,2.7,0.3,4c0.2,1.5,0.7,2.9,1,4.4c0.2,1.2,0.7,3.4,1.7,4.1"/>
		<path class="st4" d="M16.7,2.4c-0.2,2.7,0.7,6.2,1.7,8.7c1,2.6,0.9,6.3,3,8.4"/>
		<path class="st4" d="M18.7,2.7c0.9,2.9,1.8,5.9,2.5,8.8c0.6,2.5,1.1,6.2,3.2,8.1"/>
		<path class="st4" d="M21.9,2.6c-0.3,1.5,0.7,3.6,0.9,5.1c0.2,1.4,0.5,2.7,0.8,4.1c0.4,1.4,1,2.9,1.6,4.3c0.4,0.9,0.8,2.3,1.5,3"/>
		<path class="st4" d="M24.4,2.7c-0.1,1.3,0.2,2.7,0.4,4c0.2,1.2,0.3,2.6,0.6,3.8c0.5,2,1.8,3.8,2.3,5.8c0.3,1.1,0.5,2.3,1.4,3.1"/>
		<path class="st4" d="M4.6,16.9c0.4,0.4,1.1,0.3,1.6,0.3"/>
		<path class="st4" d="M6.9,15.8C7.8,16.1,9,16,10,16.1"/>
		<path class="st4" d="M9.7,17.9c0.3,0.9,2.7,0.6,3.4,0.2"/>
		<path class="st4" d="M10.7,13.5c0,0.5,1.5,0.4,1.9,0.2"/>
		<path class="st4" d="M13,16.1c1,0.5,2.4,0.5,3.2-0.2"/>
		<path class="st4" d="M12.6,11c1,0,1.8,0,2.6-0.7"/>
		<path class="st4" d="M11.1,8.5c0.4,0.4,1.1,0.5,1.5,0.1"/>
		<path class="st4" d="M8.1,11.2c0.1,0.9,1.7,0.9,2.4,0.6"/>
		<path class="st4" d="M7.4,8.6c0.2,0.5,0.8,0.6,1.3,0.5"/>
		<path class="st4" d="M9.2,5.9c0.4,0.2,1.1,0.1,1.6,0.1"/>
		<path class="st4" d="M12.3,5.2c0.1,0.9,1.9,0.9,2.6,0.6"/>
		<path class="st4" d="M15.3,7.8c0.3,0.5,1.3,0.4,1.7,0.2"/>
		<path class="st4" d="M15.9,13c0.8,0.4,1.8,0.2,2.5-0.4"/>
		<path class="st4" d="M17,17.5c0.8,0.2,2.2,0.2,2.7-0.5"/>
		<path class="st4" d="M19.2,14.7c0.8,0.4,2.1,0.1,2.7-0.6"/>
		<path class="st4" d="M20.8,18.2c0.3,0.7,1.4,0.1,1.8-0.2"/>
		<path class="st4" d="M22.2,16c0.9,0,1.5,0,2.2-0.6"/>
		<path class="st4" d="M21.3,11.2c0.1,0.2,1.7,0.7,2-0.1"/>
		<path class="st4" d="M18.2,10.3c0.7,0.2,2.1,0.4,2.7-0.2"/>
		<path class="st4" d="M19.8,5.9c-0.9,0.2-1.9,0.4-2.6-0.3"/>
		<path class="st4" d="M16.6,3.8C16,3.8,15.3,4,15,3.5"/>
		<path class="st4" d="M21.8,3.4C21.7,4,20.1,4,19.4,3.8"/>
		<path class="st4" d="M22.6,6.5c-0.3,1.1-1.9,0.9-2.8,0.7"/>
		<path class="st4" d="M25,7.5c0,1.1-1.5,1.4-2.4,1.1"/>
		<path class="st4" d="M24.3,4.1c-0.6,0.1-1.3,0.5-2.1,0.4"/>
		<path class="st4" d="M26.1,11.6c-0.6,1.1-1.6,1-2.8,1"/>
		<path class="st4" d="M27.7,16c-0.3,0.7-1.4,1.2-2.2,1.1"/>
		<path class="st4" d="M28,12.9c0,0.4-0.7,0.6-1.2,0.5"/>
		<path class="st4" d="M26.9,9.4c-0.2,0.5-0.9,0.4-1.4,0.4"/>
		<path class="st4" d="M26.6,5.5c-0.5,0.2-1,0.2-1.5,0.2"/>
		<path class="st4" d="M30,17.9c-0.2,0.5-0.9,0.4-1.4,0.4"/>
		<path class="st4" d="M2.4,18c0-0.1,0-0.2-0.1-0.2c-1.2,0.3-0.6,1.3,0.3,1.6c0.8,0.3,1.7,0.2,2.6,0.2"/>
		<path class="st4" d="M31.8,18.3c0.2-0.3,0.4-0.4,0.8-0.3c1.2,2.7-5.6,2-6.9,2"/>
		<path class="st4" d="M3.2,18.7c0.6,0.8,1.9,1,2.8,1c1,0.1,1.9-0.2,2.9-0.1c1.9,0.2,4.1,0,6,0.1c0.8,0,2.7,0.5,3.1-0.3
			c0.4,0.4,1,0.5,1.6,0.5c0.3,0,0.5,0,0.8,0c0.4-0.1,0.5-0.3,0.8-0.4c0.8-0.2,2.3,0.8,3,0c0.5,0.7,1.7,0.3,2.2-0.2
			c0.6,0.9,4.9,0.9,4.8-0.2"/>
		<path class="st4" d="M9,0.8c0,0.5,0.2,1.1,0,1.5"/>
		<path class="st4" d="M11.4,0.7c0.3,0.5,0,1,0.4,1.5"/>
		<path class="st4" d="M9.1,0.8c-0.3,0-0.5-0.2-0.6-0.4c0.9-0.3,2.5-0.1,3.4,0c0.1,0.3,0,0.3-0.2,0.4"/>
		<path class="st5" d="M13.1,21.8c-0.2,0-0.3,0-0.5,0c-1.6,0.1-1.9,1.4-2,1.8c0,0,0,0,0,0.1c0,0.5,0.1,3.4,0.2,5.6l4.1,0.1l0.5-5.7
			C15.4,23.3,15.1,21.8,13.1,21.8z"/>
		<path class="st6" d="M13.1,21.2c-2.7-0.1-3,2.1-3.1,2.3c-0.1,0.2,0.2,6.3,0.2,6.3l5.2,0.1l0.5-6.3C16,23.6,15.9,21.2,13.1,21.2z
			 M14.9,29.2l-4.1-0.1c-0.1-2.2-0.2-5.1-0.2-5.6c0,0,0,0,0-0.1c0.1-0.4,0.4-1.6,2-1.8c0.2,0,0.3,0,0.5,0c2,0.1,2.2,1.5,2.3,1.8
			L14.9,29.2z"/>
		
			<linearGradient id="SVGID_1_" gradientUnits="userSpaceOnUse" x1="4.4304" y1="-36.1668" x2="4.1056" y2="-40.801" gradientTransform="matrix(0.7674 7.658056e-03 -5.653712e-03 0.5666 9.3414 45.091)">
			<stop  offset="0" style="stop-color:#5C2819"/>
			<stop  offset="1" style="stop-color:#3E1B11"/>
		</linearGradient>
		<path class="st7" d="M15.3,29.7l-4.9-0.1c-0.1-2.4-0.2-5.9-0.2-6.1c0,0,0,0,0-0.1c0.3-1.3,1.1-2,2.4-2.1c0.2,0,0.3,0,0.5,0
			c1.1,0,1.9,0.4,2.3,1.2c0.2,0.3,0.3,0.7,0.4,1.1L15.3,29.7L15.3,29.7z M12.6,21.6c-1.7,0.1-2,1.4-2.1,1.9l0,0.1c0,0,0,0,0,0
			c0,0.5,0.1,3.3,0.2,5.6c0,0.1,0.1,0.1,0.1,0.1l4.1,0.1l0,0c0.1,0,0.1-0.1,0.1-0.1l0.5-5.7c0,0,0,0,0,0c0-0.3-0.3-1.9-2.4-1.9
			C13,21.6,12.8,21.6,12.6,21.6L12.6,21.6z"/>
		<polygon class="st8" points="15.6,24 16.5,24.1 16.4,25.5 15.5,25.5 		"/>
		<polygon class="st9" points="16.3,25.4 15.6,25.4 15.7,24.1 16.4,24.2 16.3,25.4 		"/>
		<polygon class="st10" points="16.3,25.4 15.7,25.4 15.8,24.2 16.3,24.3 16.3,25.4 		"/>
		<path class="st8" d="M16.2,24.4c0,0.1-0.1,0.2-0.2,0.2c-0.1,0-0.2-0.1-0.2-0.2c0,0,0,0,0,0c0-0.1,0.1-0.2,0.2-0.2
			C16.1,24.2,16.2,24.3,16.2,24.4C16.2,24.4,16.2,24.4,16.2,24.4z"/>
		<path class="st9" d="M16.2,24.4c0,0.1,0,0.1-0.1,0.2c0,0,0,0,0,0c-0.1,0-0.1-0.1-0.1-0.1c0-0.1,0-0.1,0.1-0.2c0,0,0,0,0,0
			C16.1,24.3,16.1,24.3,16.2,24.4z"/>
		<path class="st8" d="M16.1,25.1c0,0.1-0.1,0.2-0.2,0.2c-0.1,0-0.2-0.1-0.2-0.2c0,0,0,0,0,0c0-0.1,0.1-0.2,0.2-0.2
			C16,24.9,16.1,25,16.1,25.1C16.1,25.1,16.1,25.1,16.1,25.1z"/>
		<path class="st9" d="M16.1,25.1c0,0.1,0,0.1-0.1,0.1c-0.1,0-0.1,0-0.1-0.1c0,0,0,0,0,0c0-0.1,0-0.1,0.1-0.1
			C16,25,16.1,25,16.1,25.1C16.1,25.1,16.1,25.1,16.1,25.1z"/>
		<polygon class="st8" points="15.4,26.9 16.3,27.1 16.1,28.5 15.2,28.4 		"/>
		<polygon class="st9" points="16,28.4 15.3,28.3 15.5,27 16.1,27.2 16,28.4 		"/>
		<polygon class="st10" points="16,28.4 15.4,28.3 15.5,27.1 16.1,27.3 16,28.4 		"/>
		<path class="st8" d="M16,27.4c0,0.1-0.1,0.2-0.2,0.2c-0.1,0-0.2-0.1-0.2-0.2s0.1-0.2,0.2-0.2C15.9,27.2,15.9,27.3,16,27.4
			C16,27.4,16,27.4,16,27.4z"/>
		<path class="st9" d="M15.9,27.4c0,0.1-0.1,0.1-0.1,0.1c-0.1,0-0.1-0.1-0.1-0.1c0-0.1,0.1-0.1,0.1-0.1S15.9,27.3,15.9,27.4
			L15.9,27.4z"/>
		<path class="st8" d="M15.9,28.1c0,0.1-0.1,0.2-0.2,0.2c-0.1,0-0.2-0.1-0.2-0.2c0-0.1,0.1-0.2,0.2-0.2C15.8,27.9,15.9,28,15.9,28.1
			C15.9,28.1,15.9,28.1,15.9,28.1z"/>
		<path class="st9" d="M15.8,28.1c0,0.1-0.1,0.1-0.1,0.1c-0.1,0-0.1,0-0.1-0.1c0-0.1,0-0.1,0.1-0.1C15.7,27.9,15.8,28,15.8,28.1
			C15.8,28.1,15.8,28.1,15.8,28.1z"/>
		<polygon class="st8" points="9.6,24 10.4,24 10.4,25.5 9.6,25.5 		"/>
		<polygon class="st9" points="10.3,25.4 9.7,25.4 9.6,24.1 10.3,24.1 10.3,25.4 		"/>
		<polygon class="st10" points="10.3,25.3 9.7,25.4 9.7,24.2 10.3,24.2 10.3,25.3 		"/>
		<path class="st8" d="M10.2,24.4c0,0.1,0,0.2-0.1,0.2c-0.1,0-0.2-0.1-0.2-0.2c0,0,0,0,0,0c0-0.1,0-0.2,0.1-0.2
			C10.1,24.2,10.2,24.3,10.2,24.4C10.2,24.4,10.2,24.4,10.2,24.4z"/>
		<path class="st9" d="M10.1,24.4c0,0.1,0,0.1-0.1,0.2c-0.1,0-0.1,0-0.2-0.1c0,0,0,0,0,0c0-0.1,0-0.1,0.1-0.2
			C10,24.2,10.1,24.3,10.1,24.4C10.1,24.4,10.1,24.4,10.1,24.4z"/>
		<path class="st8" d="M10.2,25.1c0,0.1,0,0.2-0.1,0.2c-0.1,0-0.2-0.1-0.2-0.2c0,0,0,0,0,0c0-0.1,0-0.2,0.1-0.2
			C10.1,24.9,10.2,25,10.2,25.1C10.2,25.1,10.2,25.1,10.2,25.1z"/>
		<path class="st9" d="M10.1,25.1c0,0.1,0,0.1-0.1,0.2c-0.1,0-0.1,0-0.2-0.1c0,0,0,0,0,0c0-0.1,0-0.1,0.1-0.2
			C10,24.9,10.1,25,10.1,25.1C10.1,25,10.1,25.1,10.1,25.1z"/>
		<polygon class="st8" points="9.6,27 10.5,27.1 10.6,28.5 9.7,28.6 		"/>
		<polygon class="st9" points="10.5,28.4 9.8,28.4 9.7,27.1 10.4,27.2 10.5,28.4 		"/>
		<polygon class="st10" points="10.4,28.4 9.9,28.4 9.8,27.2 10.4,27.3 10.4,28.4 		"/>
		<path class="st8" d="M10.3,27.4c0,0.1,0,0.2-0.1,0.2c-0.1,0-0.2,0-0.2-0.1c0,0,0,0,0,0c0-0.1,0-0.2,0.1-0.2
			C10.2,27.3,10.2,27.3,10.3,27.4C10.3,27.4,10.3,27.4,10.3,27.4z"/>
		<path class="st9" d="M10.2,27.4c0,0.1,0,0.1-0.1,0.2c-0.1,0-0.1,0-0.2-0.1c0,0,0,0,0,0c0-0.1,0-0.1,0.1-0.2
			C10.1,27.3,10.2,27.3,10.2,27.4C10.2,27.4,10.2,27.4,10.2,27.4z"/>
		<path class="st8" d="M10.3,28.1c0,0.1,0,0.2-0.1,0.2c-0.1,0-0.2,0-0.2-0.1c0,0,0,0,0,0c0-0.1,0-0.2,0.1-0.2
			C10.2,27.9,10.3,28,10.3,28.1C10.3,28.1,10.3,28.1,10.3,28.1z"/>
		<path class="st9" d="M10.2,28.1c0,0.1,0,0.1-0.1,0.2c-0.1,0-0.1,0-0.2-0.1c0,0,0,0,0,0c0-0.1,0-0.1,0.1-0.2
			C10.1,28,10.2,28,10.2,28.1C10.2,28.1,10.2,28.1,10.2,28.1z"/>
		<path class="st11" d="M8.4,24.9c0.3,0.5,0.4,1,1,0.9"/>
		<path class="st11" d="M8.5,27.8c0.1-0.5,0.5-0.9,1-1"/>
		<path class="st11" d="M8.3,25.9c0,0.2,0.1,0.4,0.2,0.5c0-0.2,0.1-0.3,0-0.5"/>
		<polygon class="st6" points="9.7,22.4 9.9,22.4 9.9,23.4 9.8,23.4 9.9,28.7 10,28.7 10,29.9 6.9,30 6.8,29.3 6.9,29.3 6.6,24 
			6.4,24 6.3,22.8 		"/>
		<polygon class="st12" points="6.9,29.3 6.6,24 6.6,24 6.6,24 9.8,23.5 9.8,23.5 9.9,28.7 9.9,28.7 9.9,28.7 		"/>
		<path class="st6" d="M6.3,22.8L6.4,24l0.2,0l0,0l3.2-0.6l0,0l0.1-0.1l0-1l-0.1,0L6.3,22.8z M6.9,29.3l-0.1,0L6.9,30l3.1-0.1l0-1.2
			l-0.1,0l0,0L6.9,29.3L6.9,29.3z"/>
		<path class="st13" d="M6.4,22.9l0.1,1l0.1,0l3.1-0.6c0,0,0,0,0,0l0.1,0l0-0.7L6.4,22.9z M9.9,28.8L7,29.4l0,0.5l2.9-0.1L9.9,28.8z
			"/>
		<path class="st14" d="M9.9,28.8L7,29.4l0,0.1l2.9-0.3L9.9,28.8z M6.4,22.9l0,0.1l3.3-0.3l0-0.2L6.4,22.9z"/>
		<polygon class="st15" points="9.5,28.7 7.2,29 6.8,23.9 9.4,23.7 		"/>
		<path class="st11" d="M7.3,29c0-0.1-0.1-0.2-0.1-0.3c0.2-0.3,0.2-0.3,0.5-0.4c0.3-0.1,0.5-0.3,0.4-0.6c-0.1-0.2-0.5-0.4-0.6-0.1
			c-0.2,0.3,0.4,0.5,0.3,0.1"/>
		<path class="st11" d="M9.6,28.7c0-0.1,0-0.2,0-0.3c-0.3-0.2-0.3-0.2-0.6-0.3c-0.3,0-0.6-0.1-0.5-0.5c0.1-0.2,0.4-0.5,0.6-0.2
			c0.2,0.3-0.3,0.6-0.3,0.2"/>
		<path class="st11" d="M9.3,23.6c0,0.1,0.1,0.2,0.1,0.3c-0.2,0.3-0.2,0.3-0.6,0.4c-0.3,0.1-0.5,0.3-0.4,0.6C8.5,25.1,9,25.3,9.1,25
			c0.2-0.4-0.4-0.5-0.3-0.1"/>
		<path class="st11" d="M6.9,24c0,0.1,0,0.2,0,0.3c0.3,0.2,0.3,0.2,0.7,0.3c0.3,0,0.6,0.1,0.5,0.5c-0.1,0.2-0.4,0.5-0.6,0.3
			c-0.2-0.3,0.3-0.6,0.3-0.2"/>
		<path class="st11" d="M8.1,24.9C7.9,25.5,7.7,26,7,26"/>
		<path class="st11" d="M8.2,28C8,27.4,7.7,27,7,27.1"/>
		<path class="st11" d="M8.2,25c-0.1,0.3-0.5,0.6-0.3,0.9c0.1,0.1,0.3,0.2,0.4,0c0.1-0.3-0.3-0.3-0.1,0"/>
		<path class="st11" d="M8.4,25c0.1,0.3,0.6,0.5,0.5,0.9c0,0.1-0.2,0.3-0.4,0.1c-0.2-0.2,0.3-0.3,0.1-0.1"/>
		<path class="st11" d="M8.2,27.9c-0.1-0.3-0.6-0.5-0.5-0.9c0-0.1,0.2-0.3,0.4-0.1C8.3,27.1,7.9,27.2,8,27"/>
		<path class="st11" d="M8.5,27.9c0.1-0.3,0.5-0.6,0.3-0.9c-0.1-0.1-0.3-0.2-0.4,0c-0.1,0.3,0.3,0.3,0.1,0"/>
		<path class="st11" d="M8.1,24c-0.2-0.3-0.6-0.2-0.4,0.3c0.1,0.2,0.3,0.4,0.4,0.6c0.1,0.2,0.2,0.3,0.2,0.5"/>
		<path class="st11" d="M8.1,24c0.2-0.4,0.5-0.3,0.5,0.2c0,0.2-0.2,0.4-0.2,0.6c0,0.2-0.1,0.4-0.1,0.6"/>
		<path class="st11" d="M8.3,28.7C8.2,29,7.9,29,8,28.5c0-0.2,0.2-0.4,0.2-0.6s0.1-0.4,0.1-0.6"/>
		<path class="st11" d="M8.4,28.7c0.2,0.3,0.5,0.2,0.4-0.2c-0.1-0.2-0.2-0.4-0.3-0.6c-0.1-0.2-0.1-0.4-0.2-0.5"/>
		<path class="st11" d="M8.4,26.8c0-0.2-0.2-0.4-0.4-0.4c0.1,0.2,0.1,0.5,0.2,0.6"/>
		<path class="st11" d="M7,26.6c0.1,0,0.6,0,0.7-0.1C8,26.1,7,26.3,7.5,26.5"/>
		<path class="st11" d="M9.4,26.2c-0.1,0-0.5,0-0.6,0.1c-0.2,0.2,0.1,0.5,0.3,0.2c0-0.1,0,0-0.1-0.1"/>
		<polygon class="st6" points="16.6,22.6 16.5,22.5 16.4,23.5 16.5,23.6 15.9,28.8 15.8,28.8 15.7,30 18.8,30.4 18.9,29.7 
			18.8,29.7 19.6,24.5 19.8,24.5 20,23.3 		"/>
		<polygon class="st12" points="18.8,29.7 19.6,24.5 19.6,24.5 19.6,24.5 16.5,23.6 16.5,23.7 15.9,28.8 15.9,28.8 15.9,28.8 		"/>
		<path class="st6" d="M16.6,22.6l-0.1,0l-0.1,1l0.1,0.1l0,0l3.1,0.9l0,0l0.2,0l0.2-1.2L16.6,22.6z M18.8,29.7l-2.9-0.9l0,0l-0.1,0
			L15.7,30l3.1,0.4l0.1-0.7L18.8,29.7L18.8,29.7z"/>
		<path class="st13" d="M16.6,22.7l-0.1,0.7l0,0c0,0,0,0,0,0l3.1,0.9l0.1,0l0.1-1L16.6,22.7z M15.9,29.9l2.9,0.4l0.1-0.5l-2.9-0.8
			L15.9,29.9z"/>
		<path class="st14" d="M15.9,29.3l2.9,0.6l0-0.1L15.9,29L15.9,29.3z M16.6,22.7l0,0.2l3.3,0.6l0-0.1L16.6,22.7z"/>
		<polygon class="st15" points="16.3,28.9 18.6,29.4 19.4,24.4 16.9,23.8 		"/>
		<path class="st11" d="M18.5,29.4c0-0.1,0.1-0.2,0.1-0.2c-0.2-0.3-0.2-0.3-0.5-0.5c-0.3-0.1-0.5-0.3-0.3-0.6c0.1-0.2,0.5-0.3,0.6,0
			c0.1,0.4-0.4,0.4-0.3,0.1"/>
		<path class="st11" d="M16.3,28.9c0-0.1,0-0.2,0-0.3c0.3-0.2,0.3-0.2,0.6-0.2c0.3,0,0.6-0.1,0.5-0.4c0-0.2-0.4-0.5-0.5-0.3
			c-0.3,0.3,0.2,0.6,0.2,0.2"/>
		<path class="st11" d="M16.9,23.8c0,0.1-0.1,0.2-0.1,0.2c0.2,0.3,0.2,0.3,0.5,0.5c0.3,0.1,0.5,0.3,0.3,0.6c-0.1,0.2-0.5,0.3-0.7,0
			c-0.1-0.4,0.4-0.4,0.3-0.1"/>
		<path class="st11" d="M19.3,24.4c0,0.1,0,0.2,0,0.3c-0.3,0.2-0.3,0.2-0.7,0.2c-0.3,0-0.6,0.1-0.5,0.4c0,0.2,0.4,0.5,0.6,0.3
			c0.3-0.3-0.2-0.6-0.3-0.2"/>
		<path class="st11" d="M18.1,25.2c0.1,0.6,0.3,1.1,1,1.2"/>
		<path class="st11" d="M17.7,28.2c0.2-0.6,0.6-0.9,1.2-0.7"/>
		<path class="st11" d="M18,25.3c0,0.3,0.4,0.7,0.3,1c-0.1,0.1-0.3,0.2-0.4,0c-0.1-0.3,0.3-0.2,0.1,0"/>
		<path class="st11" d="M17.8,25.3c-0.1,0.3-0.6,0.5-0.6,0.8c0,0.1,0.2,0.3,0.4,0.1c0.2-0.2-0.2-0.4-0.1-0.1"/>
		<path class="st11" d="M17.6,28.2c0.1-0.3,0.6-0.5,0.6-0.8c0-0.1-0.2-0.3-0.4-0.1c-0.2,0.2,0.2,0.4,0.1,0.1"/>
		<path class="st11" d="M17.4,28.1c0-0.3-0.4-0.7-0.3-1c0.1-0.1,0.3-0.2,0.4,0c0.1,0.3-0.3,0.2-0.1,0"/>
		<path class="st11" d="M18.1,24.3c0.3-0.3,0.6-0.1,0.4,0.3c-0.1,0.2-0.3,0.3-0.4,0.5c-0.1,0.2-0.2,0.3-0.3,0.5"/>
		<path class="st11" d="M18.1,24.3c-0.1-0.4-0.5-0.4-0.5,0.1c0,0.2,0.1,0.4,0.2,0.6c0,0.2,0,0.4,0.1,0.6"/>
		<path class="st11" d="M17.5,28.9c0.1,0.4,0.5,0.3,0.4-0.2c0-0.2-0.1-0.4-0.2-0.6c0-0.2-0.1-0.4-0.1-0.6"/>
		<path class="st11" d="M17.5,29c-0.2,0.3-0.5,0.2-0.3-0.3c0.1-0.2,0.2-0.4,0.3-0.6c0.1-0.2,0.1-0.4,0.2-0.5"/>
		<path class="st11" d="M17.6,27.1c0.1-0.2,0.2-0.3,0.4-0.4c-0.1,0.2-0.1,0.5-0.2,0.6"/>
		<path class="st11" d="M19,27c-0.1,0-0.6,0-0.7-0.1c-0.3-0.5,0.7-0.2,0.1-0.1"/>
		<path class="st16" d="M16.6,26.3c0.1,0.1,0.6,0.1,0.7,0.3c0.1,0.3-0.3,0.3-0.4,0.2c0,0,0.1,0,0.1,0"/>
		<path class="st17" d="M28.4,21.4c-1.3,0.1-2.5,0.2-3.8,0.2c0,0.6,0,1.3,0,1.9c1.1,0.1,2.7-0.1,3.9-0.2c0.1-0.6-0.3-1.1-0.2-1.7"/>
		<path class="st17" d="M26.7,23.8c-1,0-2.1-0.1-3.1,0c0,0.7,0,1.4,0,2c1,0.1,2,0.1,2.9,0c0-0.7,0.2-1.3,0.2-1.9"/>
		<path class="st17" d="M27,23.8c0.3,0.6-0.3,1.4-0.3,2.1c0.3-0.1,1.6,0,1.8-0.3c0.2-0.3,0.1-1.5,0-1.9c-0.5,0-0.9,0-1.4,0"/>
		<path class="st18" d="M4.2,10.3c0.4,0,1.3-1.3,1.2-1.8C5.3,7.9,4,7.1,3.9,8.2c-0.6-0.4-1.2-0.3-1,0.5c0.2,0.7,1.1,1,1.2,1.8"/>
		<path class="st18" d="M3,24.7c-1-0.1-2.7-0.3-2.7-1.6c0.2,0,0.5-0.1,0.8,0c0-0.2,0.1-0.4,0-0.6C2.5,21.8,2.2,24.1,3,24.7"/>
		<path class="st18" d="M12.4,24c-0.5-0.1-0.9,0.3-0.7,0.8c0.2,0.4,1.1,0.6,1.5,0.8c0-0.6,0.5-0.9,0.4-1.6c-0.2-0.7-0.7-0.7-1-0.1"
			/>
		<path class="st19" d="M31.5,29.4c-1,0.7-2.3,1.1-3.5,1.5c-0.8,0.3-1.1,0.7-1.5,1.3l0-3.1c0-0.1-0.1-0.2-0.2-0.2c0,0,0,0,0,0
			l-0.1,0C26.1,29,26,29,26,29.1c0,0,0,0,0,0l0,2.7c-0.3-0.4-0.6-0.8-1-1.1c-1.1-0.8-2.6-0.9-3.3-2c-0.2,1,0.6,2.7,1.7,2.9
			c0.7,0.1,2-0.1,2.6,0.5l0,1.4c0,0.1,0.1,0.2,0.2,0.2c0,0,0,0,0,0l0.1,0c0.1,0,0.2-0.1,0.2-0.2c0,0,0,0,0,0l0-0.8
			c1.3-0.3,2.6-0.2,3.8-1C31.1,31.2,31.7,30.4,31.5,29.4z"/>
		
			<radialGradient id="SVGID_2_" cx="-48.7298" cy="-452.1605" r="15.931" gradientTransform="matrix(-0.2464 0.1397 0.1251 0.2229 72.9586 133.4388)" gradientUnits="userSpaceOnUse">
			<stop  offset="0" style="stop-color:#FFFFFF"/>
			<stop  offset="8.000000e-02" style="stop-color:#EDCDD0"/>
			<stop  offset="0.16" style="stop-color:#DB9EA3"/>
			<stop  offset="0.25" style="stop-color:#CC757D"/>
			<stop  offset="0.34" style="stop-color:#C0545D"/>
			<stop  offset="0.43" style="stop-color:#B63A45"/>
			<stop  offset="0.53" style="stop-color:#AF2834"/>
			<stop  offset="0.63" style="stop-color:#AB1D29"/>
			<stop  offset="0.74" style="stop-color:#AA1926"/>
		</radialGradient>
		<path class="st20" d="M31,25.6c0-2.1-2.5-4.4-4.7-1.5c-2.1-2.6-4.7-0.7-4.7,1.4c0,2,3.9,5.2,4.6,5.7l0,0.1l0,0l0.1,0l0-0.1
			C27,30.7,31,27.5,31,25.6z"/>
	</g>
</g>
</svg>
