<svg width="21" height="31" viewBox="0 0 21 31" fill="none" xmlns="http://www.w3.org/2000/svg">
<path opacity="0.9" d="M11.925 15.9394C16.3776 15.9394 20 12.5885 20 8.4697C20 4.35091 16.3776 1 11.925 1C11.9076 1 11.8903 1.00026 11.8731 1.00088H5.2769C5.27623 1.00088 5.27566 1.00079 5.27509 1.00079C4.48811 1.00079 3.85009 1.59098 3.85009 2.31897V2.31906V14.6212V18.5758H2.425C1.63802 18.5758 1 19.166 1 19.8939C1 20.6219 1.63802 21.2121 2.425 21.2121H3.85V28.6818C3.85 29.4098 4.48802 30 5.275 30C6.06198 30 6.7 29.4098 6.7 28.6818V21.2121H11.925C12.712 21.2121 13.35 20.6219 13.35 19.8939C13.35 19.166 12.712 18.5758 11.925 18.5758H6.7V15.9394H11.925ZM11.925 3.63724C11.9404 3.63724 11.9558 3.63698 11.971 3.63654C14.831 3.65939 17.15 5.81875 17.15 8.4697C17.15 11.1348 14.8061 13.303 11.925 13.303H6.7V3.63724H11.925Z" fill="#367BF5" stroke="#367BF5"/>
</svg>
